<svg xmlns="http://www.w3.org/2000/svg" width="429.506" height="179.869" viewBox="0 0 429.506 179.869">
  <g id="Group_398" data-name="Group 398" transform="matrix(0.985, -0.174, 0.174, 0.985, -7.164, 52.962)">
    <path id="Path_212" data-name="Path 212" d="M106.83,14.883s-2.9,13.2-11.836,20.474c0,0,9.671-2.748,18.731-.3,0,0-14.968,20.085-30.3,9.866,0,0-25.758,21.157-56.857,7.652a54.534,54.534,0,0,1-12.85-7.655c4.664,9.48.805,19.266.805,19.266-1.118-3.914-2.6-5.559-9.039-13.473A13.569,13.569,0,0,1,4.116,34.965a4.336,4.336,0,0,1,.553-.491C-4.224,19.162,1.675,2.5,5.28.6c4.067-2.147,12.76,1.18,23.3,14.857h0a13.569,13.569,0,0,1,15.576,2.722C51.485,25.273,53,26.894,56.8,28.344c0,0-13.235,3.942-22.978-5.424h0q1.931,2.994,3.914,6.447S44.065,45.073,81.69,39.506C81.69,39.506,86.31,14.956,106.83,14.883Z" transform="translate(303.106 86.531)" fill="#009dff"/>
    <path id="Path_213" data-name="Path 213" d="M146.469,13.455s-3.042,18.31-14.793,28.922c0,0,13.073-4.452,25.675-1.727,0,0-19.117,28.61-40.866,15.672,0,0-33.844,30.841-77.459,14.508a74.912,74.912,0,0,1-18.168-9.6c7.067,12.676,2.464,26.373,2.464,26.373-1.809-5.291-3.962-7.443-13.351-17.845A18.64,18.64,0,0,1,6.977,48.25a5.943,5.943,0,0,1,.725-.713C-5.579,27.16,1.338,3.889,6.15,1.023c5.428-3.232,17.588.719,33.009,18.739h0A18.639,18.639,0,0,1,60.72,22.4c10.557,9.216,12.744,11.332,18.064,13.053,0,0-17.879,6.342-31.905-5.819h0Q49.737,33.6,52.7,38.2s9.794,21.1,61.016,10.808C113.717,49.007,118.324,15,146.469,13.455Z" transform="translate(0 41.256)" fill="#009dff"/>
    <path id="Path_214" data-name="Path 214" d="M106.145,86.241s2.627-14.072-3.088-24.865c0,0,8.3,6.677,18.151,8.027,0,0-6.3-25.779-25.48-22.143,0,0-16.388-31.282-52.308-30.957a57.765,57.765,0,0,0-15.7,2.159C36.187,11.142,36.466,0,36.466,0c-2.708,3.357-4.835,4.348-14.385,9.409a14.376,14.376,0,0,0-7.846,14.8,4.577,4.577,0,0,0,.337.708c-15,11.263-16.131,29.954-13.4,33.3C4.252,61.994,14.108,62.34,30.04,53.35h0a14.377,14.377,0,0,0,16.321,3.78c10.083-3.893,12.226-4.849,16.536-4.693,0,0-11.284-9.314-24.658-4.2h0q3.121-2.123,6.482-4.672s12.666-12.707,47.072,8.269C91.791,51.832,86.156,77.691,106.145,86.241Z" transform="translate(183.787 0)" fill="#009dff" opacity="0.8"/>
  </g>
</svg>
