<svg xmlns="http://www.w3.org/2000/svg" width="245.909" height="45" viewBox="0 0 245.909 45">
  <g id="logo" transform="translate(-50 -27)">
    <g id="Group_13" data-name="Group 13" transform="translate(50 27.181)">
      <path id="Path_1" data-name="Path 1" d="M105.245,300.9a16.154,16.154,0,0,1,3.677,1.249,11.556,11.556,0,0,1-3.951,21.7,11.477,11.477,0,0,1-12.455-8.023,1.166,1.166,0,0,0-.2-.407c0,2.249.008,4.5,0,6.747-.007,1.559.218,1.4-1.409,1.408-.944.005-1.89-.038-2.83.015a1.248,1.248,0,0,1-1.243-.739q-4.24-6.882-8.514-13.743c-.074-.121-.158-.236-.325-.484-.016.363-.034.581-.034.8q0,6.637.007,13.276c0,.869,0,.873-.875.875-1.09,0-2.181-.005-3.271,0-.371,0-.592-.1-.591-.533q.027-11.072.041-22.145h5.035a5.874,5.874,0,0,0,.271.562q4.319,6.938,8.647,13.869c.078.126.1.329.365.344,0-1.1,0-2.184,0-3.27q.014-5.752.031-11.5h4.658v8.444c.209-.086.191-.23.226-.341a11.628,11.628,0,0,1,5.122-6.534,13.776,13.776,0,0,1,4.219-1.569Zm-4.174,10.542c.629,0,1.259-.019,1.887.006.452.018.644-.134.635-.609q-.033-1.824,0-3.648c.008-.47-.175-.644-.632-.607-1.087.085-2.164.239-3.238.421a.694.694,0,0,0-.6.63c-.231,1.087-.362,2.189-.5,3.291-.05.4.124.525.494.518C99.771,311.434,100.422,311.443,101.071,311.444Zm.083,1.429v0c-.691,0-1.382,0-2.074,0-.35,0-.5.157-.465.5.115,1.039.184,2.083.4,3.111a.777.777,0,0,0,.707.664c1.088.235,2.2.306,3.295.443.4.05.577-.092.572-.512-.013-1.215-.014-2.43,0-3.644.007-.454-.2-.581-.614-.569C102.369,312.885,101.761,312.873,101.154,312.873Zm3.995-1.915a2.042,2.042,0,0,0,.17.276,4.813,4.813,0,0,0,3.691,1.517c.122-.005.268-.085.344.047.094.163-.044.271-.157.365a3.414,3.414,0,0,1-.305.223c-.348.229-.336.422.017.653a1.663,1.663,0,0,0,2.322-.47c.181-.228.43-.469.313-.778-.131-.342-.476-.134-.725-.175-.137-.023-.341.054-.386-.118-.057-.22.185-.251.32-.314a7.15,7.15,0,0,0,1.991-1.7,1.77,1.77,0,0,0,.511-1.253c-.883.884-2.038,1-2.932,1.623a.5.5,0,0,1-.738-.045c-.289-.357-.382-.207-.44.137a.455.455,0,0,1-.55.4C107.486,311.2,106.335,311.485,105.149,310.958Zm-1.573,9.864h0c0-.355-.023-.713.005-1.066.039-.492-.117-.716-.655-.727a18.265,18.265,0,0,1-1.994-.2c-1.441-.191-1.48-.181-.932,1.18,1.01,2.51.46,2.123,2.857,2.47l.186.027c.373.049.547-.1.532-.488S103.576,321.22,103.576,320.822Zm-8.258-9.378c.418,0,.837-.018,1.253,0s.607-.124.65-.553c.093-.934.2-1.868.355-2.795.083-.495-.1-.476-.458-.358-.738.243-1.41.638-2.128.916a2.36,2.36,0,0,0-1.451,2.333c-.029.322.059.467.4.456C94.4,311.431,94.858,311.443,95.318,311.444Zm0,1.43c-.461,0-.92,0-1.381,0-.186,0-.382,0-.462.231a2.616,2.616,0,0,0,.58,1.833,14.26,14.26,0,0,0,3.035,1.487c.406.152.482-.009.419-.376-.079-.453-.157-.908-.2-1.364C97.142,312.872,97.147,312.872,95.314,312.874Zm8.275-9.1c0-1.643,0-1.642-1.631-1.37-.1.017-.208.023-.311.044-.352.071-.712.14-.874.521q-.454,1.066-.89,2.141c-.117.289-.06.422.306.361.7-.118,1.406-.2,2.111-.278C103.589,305.052,103.59,305.059,103.59,303.775ZM94.656,317a8.612,8.612,0,0,0,4.223,4.247c-.295-.932-.581-1.843-.872-2.751a.439.439,0,0,0-.288-.308A23.881,23.881,0,0,1,94.656,317Zm4.25-13.461c-1.241.347-3.46,2.389-3.686,3.4A24.507,24.507,0,0,1,97.779,306a.538.538,0,0,0,.372-.315C98.4,304.983,98.645,304.279,98.906,303.535Z" transform="translate(-47.845 -300.902)" fill="#f39122"/>
      <path id="Path_2" data-name="Path 2" d="M39.383,334.217c.335,0,.671-.01,1.007-.01,18.349,0,36.7-.04,55.049.02,6.514.022,11.194-2.911,14.5-8.343.293-.482.546-.989.818-1.485v3.65c-.076.6-.16,1.2-.229,1.8a33.476,33.476,0,0,1-2.742,10.284c-.2.436-.4.548-.86.365a6.949,6.949,0,0,0-3.626-.518,11.515,11.515,0,0,0-5.038,2.3,7.148,7.148,0,0,1-5.692,1.4,8.231,8.231,0,0,1-3.506-1.617,9.205,9.205,0,0,0-5.631-2.042,10.551,10.551,0,0,0-6.286,2.235c-2.738,1.944-6.229,2.358-9.015-.17a5.407,5.407,0,0,0-1.195-.808c-3.68-1.849-7.211-1.211-10.481.932-3.311,2.17-6.274,2.2-9.437-.234a11,11,0,0,0-3.352-1.823,8.689,8.689,0,0,0-4.283-.149Z" transform="translate(-39.383 -305.126)" fill="#f39122"/>
      <path id="Path_3" data-name="Path 3" d="M61.283,300.9c0,4.78.047,9.56,0,14.338a8.612,8.612,0,0,1-2.448,6.465,8.314,8.314,0,0,1-4.285,2.106,14.976,14.976,0,0,1-6.361-.09,7.664,7.664,0,0,1-6.187-7.5c-.206-4.882-.04-9.766-.091-14.648a1.522,1.522,0,0,1,.117-.676h4.909a2.086,2.086,0,0,1,.118.927q0,3.928,0,7.858c0,2.053-.016,4.108.035,6.16a3.589,3.589,0,0,0,3.263,3.818,7.243,7.243,0,0,0,2.254.056c2.342-.282,3.326-1.386,3.519-3.737.1-1.215.084-2.427.09-3.641q.026-5.719.034-11.44Z" transform="translate(-40.01 -300.902)" fill="#f39122"/>
      <path id="Path_4" data-name="Path 4" d="M39.383,348.632a7.589,7.589,0,0,1,6.37,1.015c.694.428,1.325.96,2.008,1.407a7.314,7.314,0,0,0,8.587-.224,10.808,10.808,0,0,1,8.044-1.966A7.052,7.052,0,0,1,68,350.535c2.8,2.476,6.028,2.28,8.977.363a15.143,15.143,0,0,1,3.651-1.941,8.838,8.838,0,0,1,8.356,1.591,7.52,7.52,0,0,0,7.579,1.214,10.094,10.094,0,0,0,2.214-1.307,10.227,10.227,0,0,1,5.008-2.034,6.435,6.435,0,0,1,2.05.229c.137.032.285.081.28.282-.011.378-.763,1.147-1.137,1.087a6.663,6.663,0,0,0-4.992,1.48,12.924,12.924,0,0,1-4.844,2.294H92.629a11.651,11.651,0,0,1-4.5-1.987,7.4,7.4,0,0,0-9.273-.3A14.9,14.9,0,0,1,74,353.793H70.978a10.118,10.118,0,0,1-4.114-2.206,5.578,5.578,0,0,0-3.029-1.287,9.151,9.151,0,0,0-6.178,1.477,13.344,13.344,0,0,1-4.428,2.016h-2.9a13.017,13.017,0,0,1-4.868-2.492,6.324,6.324,0,0,0-6.084-1.158Z" transform="translate(-39.383 -311.107)" fill="#f39122"/>
    </g>
    <g id="Group_14" data-name="Group 14" transform="translate(137.999 27)">
      <path id="Path_5" data-name="Path 5" d="M154.926,300.66c6.413,0,10.232,4.811,10.232,10.991,0,6.005-3.819,10.816-10.232,10.816s-10.233-4.811-10.233-10.816C144.693,305.471,148.512,300.66,154.926,300.66Zm0,17.959c4.111,0,5.656-3.5,5.656-6.968,0-3.644-1.545-7.143-5.656-7.143s-5.656,3.5-5.656,7.143C149.27,315.121,150.815,318.619,154.926,318.619Z" transform="translate(-144.693 -300.66)" fill="#f39122"/>
      <path id="Path_6" data-name="Path 6" d="M185.456,322.137H180.3l-6.763-20.815h4.723l4.635,14.635h.059l4.693-14.635h4.723Z" transform="translate(-151.903 -300.825)" fill="#f39122"/>
      <path id="Path_7" data-name="Path 7" d="M201.4,301.321h15.568v3.848H205.978v4.461h10.087v3.556H205.978v5.1H217.2v3.848H201.4Z" transform="translate(-158.87 -300.825)" fill="#f39122"/>
      <path id="Path_8" data-name="Path 8" d="M226.975,301.321H238.2a5.719,5.719,0,0,1,6.093,5.743A5.084,5.084,0,0,1,241,312.282v.059c2.246.612,2.886,2.74,3.032,4.868.088,1.312.029,3.79.875,4.927h-4.577c-.524-1.312-.495-3.323-.728-4.985-.321-2.186-1.167-3.148-3.47-3.148h-4.577v8.134h-4.577Zm4.577,9.417h5.014c2.07,0,3.148-.875,3.148-2.974,0-2.012-1.078-2.886-3.148-2.886h-5.014Z" transform="translate(-165.263 -300.825)" fill="#f39122"/>
      <path id="Path_9" data-name="Path 9" d="M258.108,315.062c0,2.77,2.157,3.848,4.606,3.848,1.6,0,4.052-.466,4.052-2.6,0-2.273-3.148-2.594-6.181-3.44-3.09-.758-6.209-2.07-6.209-5.917,0-4.286,4.023-6.3,7.784-6.3,4.344,0,8.339,1.9,8.339,6.705h-4.432c-.146-2.477-1.9-3.148-4.111-3.148-1.457,0-3.148.612-3.148,2.361,0,1.6.992,1.837,6.21,3.148,1.545.35,6.181,1.37,6.181,6.064,0,3.819-2.974,6.676-8.659,6.676-4.606,0-8.95-2.274-8.862-7.4Z" transform="translate(-171.939 -300.66)" fill="#f39122"/>
      <path id="Path_10" data-name="Path 10" d="M281.039,301.321h15.568v3.848H285.616v4.461H295.7v3.556H285.616v5.1H296.84v3.848h-15.8Z" transform="translate(-178.779 -300.825)" fill="#f39122"/>
      <path id="Path_11" data-name="Path 11" d="M311.561,301.321h4.693l7.784,20.815h-4.752l-1.574-4.635h-7.784l-1.632,4.635H303.66Zm-.437,12.769h5.394l-2.624-7.638h-.059Z" transform="translate(-184.435 -300.825)" fill="#f39122"/>
      <path id="Path_12" data-name="Path 12" d="M336.309,315.062c0,2.77,2.158,3.848,4.607,3.848,1.6,0,4.053-.466,4.053-2.6,0-2.273-3.149-2.594-6.181-3.44-3.091-.758-6.21-2.07-6.21-5.917,0-4.286,4.024-6.3,7.784-6.3,4.344,0,8.338,1.9,8.338,6.705h-4.431c-.146-2.477-1.9-3.148-4.111-3.148-1.458,0-3.149.612-3.149,2.361,0,1.6.992,1.837,6.21,3.148,1.546.35,6.181,1.37,6.181,6.064,0,3.819-2.974,6.676-8.659,6.676-4.606,0-8.95-2.274-8.863-7.4Z" transform="translate(-191.489 -300.66)" fill="#f39122"/>
    </g>
    <g id="Group_15" data-name="Group 15" transform="translate(138.149 55.644)">
      <path id="Path_13" data-name="Path 13" d="M144.893,337.065h5.872c3.264,0,4.5,2.06,4.5,4.176s-1.24,4.175-4.5,4.175h-3.009v4.668h-2.863Zm2.863,6.127h2.225c1.313,0,2.516-.292,2.516-1.951s-1.2-1.951-2.516-1.951h-2.225Z" transform="translate(-144.893 -336.755)" fill="#f39122"/>
      <path id="Path_14" data-name="Path 14" d="M160.985,337.065h2.863v10.612h6.345v2.407h-9.208Z" transform="translate(-148.916 -336.755)" fill="#f39122"/>
      <path id="Path_15" data-name="Path 15" d="M178.371,337.065h2.936l4.868,13.019H183.2l-.985-2.9h-4.868l-1.021,2.9h-2.9Zm-.274,7.987h3.374l-1.642-4.778h-.036Z" transform="translate(-152.027 -336.755)" fill="#f39122"/>
      <path id="Path_16" data-name="Path 16" d="M200.3,341.338a2.841,2.841,0,0,0-2.844-2.279c-2.572,0-3.538,2.188-3.538,4.467,0,2.171.966,4.358,3.538,4.358,1.751,0,2.734-1.185,2.954-2.918h2.772a5.477,5.477,0,0,1-5.726,5.324c-4.012,0-6.4-3.008-6.4-6.765,0-3.865,2.389-6.874,6.4-6.874,2.844,0,5.27,1.677,5.616,4.686Z" transform="translate(-156.433 -336.652)" fill="#f39122"/>
      <path id="Path_17" data-name="Path 17" d="M209.7,337.065h9.737v2.407h-6.874v2.79h6.309v2.225h-6.309s-1.755,2.393,0,3.19,7.02,0,7.02,0v2.407H209.7Z" transform="translate(-161.094 -336.755)" fill="#f39122"/>
      <path id="Path_18" data-name="Path 18" d="M225.326,337.065h4.03l3.045,8.953h.036l2.881-8.953h4.03v13.019h-2.68v-9.227h-.037l-3.191,9.227h-2.206l-3.191-9.135h-.037v9.135h-2.68Z" transform="translate(-165.001 -336.755)" fill="#f39122"/>
      <path id="Path_19" data-name="Path 19" d="M247.251,337.065h9.736v2.407h-6.874v2.79h6.308v2.225h-6.308v3.19h7.02v2.407h-9.883Z" transform="translate(-170.483 -336.755)" fill="#f39122"/>
      <path id="Path_20" data-name="Path 20" d="M262.88,337.065h2.844l5.434,8.734h.037v-8.734h2.68v13.019h-2.863l-5.416-8.716h-.037v8.716h-2.68Z" transform="translate(-174.39 -336.755)" fill="#f39122"/>
      <path id="Path_21" data-name="Path 21" d="M283.31,339.472h-3.9v-2.407h10.667v2.407h-3.9v10.612H283.31Z" transform="translate(-178.522 -336.755)" fill="#f39122"/>
      <path id="Path_22" data-name="Path 22" d="M295.3,350.68h2.863v2.808a3.115,3.115,0,0,1-2.844,3.027V355.2a1.664,1.664,0,0,0,1.294-1.714H295.3Z" transform="translate(-182.496 -340.159)" fill="#f39122"/>
      <path id="Path_23" data-name="Path 23" d="M308.771,337.065h2.863v13.019h-2.863Z" transform="translate(-185.863 -336.755)" fill="#f39122"/>
      <path id="Path_24" data-name="Path 24" d="M315.821,337.065h2.844L324.1,345.8h.037v-8.734h2.68v13.019h-2.863l-5.416-8.716H318.5v8.716h-2.68Z" transform="translate(-187.625 -336.755)" fill="#f39122"/>
      <path id="Path_25" data-name="Path 25" d="M342.2,341.338a2.841,2.841,0,0,0-2.844-2.279c-2.571,0-3.538,2.188-3.538,4.467,0,2.171.967,4.358,3.538,4.358,1.75,0,2.735-1.185,2.953-2.918h2.772a5.477,5.477,0,0,1-5.725,5.324c-4.012,0-6.4-3.008-6.4-6.765,0-3.865,2.389-6.874,6.4-6.874,2.844,0,5.27,1.677,5.616,4.686Z" transform="translate(-191.909 -336.652)" fill="#f39122"/>
      <path id="Path_26" data-name="Path 26" d="M351.382,350.68h2.863v2.808h-2.863Z" transform="translate(-196.515 -340.159)" fill="#f39122"/>
    </g>
  </g>
</svg>
