<svg xmlns="http://www.w3.org/2000/svg" width="450" height="454.979" viewBox="0 0 450 454.979">
  <g id="uno-model" transform="translate(-27.019 -109.943)">
    <path id="Path_802" data-name="Path 802" d="M113.924,299.986S309.6,173.207,392.9,226.991s-26.633,117.907,15.989,159.4S328,559.685,151.7,559.689c-121.8,0-9.287-86.529-59.657-123.41S66.459,327.646,113.924,299.986Z" transform="translate(-4.649 -12.942)" fill="#efefef" opacity="0.73"/>
    <path id="Path_803" data-name="Path 803" d="M98.242,288.462S314,148.671,405.854,207.976s-29.366,130.008,17.63,175.758S334.294,574.817,139.9,574.821c-134.3,0-10.239-95.409-65.781-136.076S45.905,318.961,98.242,288.462Z" transform="translate(-2.058 -10.4)" fill="none" stroke="#efefef" stroke-miterlimit="10" stroke-width="1"/>
    <ellipse id="Ellipse_75" data-name="Ellipse 75" cx="35.011" cy="21.444" rx="35.011" ry="21.444" transform="translate(27.019 488.285) rotate(-68.448)" fill="#efefef"/>
    <line id="Line_74" data-name="Line 74" x2="397.526" transform="translate(48.04 540.526)" fill="none" stroke="#f39122" stroke-miterlimit="10" stroke-width="7"/>
    <g id="Group_715" data-name="Group 715" transform="translate(176.627 348.718)">
      <path id="Path_804" data-name="Path 804" d="M263.7,420.865s-18.534-45.888-45.727-33.673-15.316,48.161-8.753,55.662S257.538,475.455,263.7,420.865Z" transform="translate(-198.317 -383.043)" fill="#fff"/>
      <path id="Path_805" data-name="Path 805" d="M263.328,420.568q-1.456-2.891-3.089-5.669c-1.077-1.857-2.2-3.687-3.387-5.467A83.819,83.819,0,0,0,249.11,399.3a59.251,59.251,0,0,0-4.431-4.478,40.946,40.946,0,0,0-4.922-3.775,28.209,28.209,0,0,0-5.384-2.757,23.76,23.76,0,0,0-2.831-.882c-.48-.1-.965-.165-1.445-.253l-.721-.122-.728-.039a18.944,18.944,0,0,0-5.76.459,24.77,24.77,0,0,0-5.486,2.108,28.851,28.851,0,0,0-4.988,3.239,25.489,25.489,0,0,0-4.011,4.257,26.455,26.455,0,0,0-4.607,10.729,39.527,39.527,0,0,0-.35,12.066,54,54,0,0,0,2.723,11.975,42.414,42.414,0,0,0,2.367,5.608,23.711,23.711,0,0,0,1.477,2.5,10.891,10.891,0,0,0,1.754,2.025,35.57,35.57,0,0,0,4.774,3.674,50.826,50.826,0,0,0,5.35,3.062,42.322,42.322,0,0,0,11.577,3.849l.747.129.748.071c.5.042,1,.111,1.5.134a24.394,24.394,0,0,0,2.984-.046,22.8,22.8,0,0,0,2.937-.4c.48-.11.947-.264,1.426-.385l.715-.193.685-.274a19.345,19.345,0,0,0,5.161-2.923,24.543,24.543,0,0,0,4.169-4.424,41.031,41.031,0,0,0,5.652-11.189l.974-3.049c.289-1.029.527-2.072.8-3.11l.4-1.56.315-1.564Zm0,0-.241,3.211-.13,1.634-.214,1.61c-.158,1.071-.3,2.15-.481,3.22l-.674,3.2a41.34,41.34,0,0,1-4.927,12.248,26.544,26.544,0,0,1-4.329,5.249,22.611,22.611,0,0,1-5.8,3.811l-.794.374-.826.289c-.552.186-1.1.389-1.666.546a26.467,26.467,0,0,1-3.428.642,28.388,28.388,0,0,1-3.464.218c-.576,0-1.147-.046-1.723-.069l-.861-.044-.852-.1a42.506,42.506,0,0,1-13-3.753,55.712,55.712,0,0,1-5.948-3.181,40.169,40.169,0,0,1-5.562-4.045,14.849,14.849,0,0,1-2.523-2.79,28.675,28.675,0,0,1-1.855-3.028,47.211,47.211,0,0,1-2.747-6.243,58.373,58.373,0,0,1-3.054-13.145,44.674,44.674,0,0,1,.543-13.648,29.005,29.005,0,0,1,10.657-17.7,33.5,33.5,0,0,1,5.926-3.622c.524-.241,1.022-.516,1.569-.726l1.648-.615.824-.3.858-.223,1.721-.422a23.164,23.164,0,0,1,7.081-.23l.881.1.864.184c.574.13,1.154.239,1.719.39a27.563,27.563,0,0,1,3.28,1.19,28.514,28.514,0,0,1,5.912,3.442,44.037,44.037,0,0,1,5.045,4.421,57.191,57.191,0,0,1,4.327,5.007c1.339,1.742,2.579,3.547,3.742,5.392s2.261,3.723,3.273,5.645A85.613,85.613,0,0,1,263.328,420.568Z" transform="translate(-197.947 -382.746)" fill="#b7b7b7"/>
    </g>
    <rect id="Rectangle_171" data-name="Rectangle 171" width="5.749" height="8.624" rx="2.517" transform="translate(208.178 366.28)" fill="#333132"/>
    <rect id="Rectangle_172" data-name="Rectangle 172" width="5.749" height="8.624" rx="2.517" transform="translate(192.368 366.567)" fill="#333132"/>
    <path id="Path_806" data-name="Path 806" d="M220.689,417.654l-8.37-3.47s5.069-4.286,9.773-2.874c5.75,1.724,4.6,6.9,4.6,6.9s-1.15,8.048-11.5,4.6Z" transform="translate(-23.113 -37.555)" fill="#e9d947"/>
    <g id="Group_716" data-name="Group 716" transform="translate(80.343 391.676)">
      <path id="Path_807" data-name="Path 807" d="M88.155,580.819h60.828a83.093,83.093,0,1,1,165.684,0h61.647c.084-3.281.162-6.563-.035-9.828-.421-6.961-1.346-13.889-1.919-20.844-.222-2.7-1.491-3.438-4.09-3.525-11.2-.371-22.4-.964-32.514-1.427-5.057-9.988-9.831-19.191-14.316-28.532a5.834,5.834,0,0,1,.319-4.967c5.764-8.083,11.687-16.062,17.845-23.848,2.859-3.615,2.27-5.919-5.57-9.6a42.941,42.941,0,0,1-18.564-17.263c-4.024-6.831-5.957-5.166-8.257-3.062-7.333,6.7-14.78,13.283-22.036,20.068-2.256,2.109-3.78,2.42-7.311.7a115.875,115.875,0,0,0-22.664-8.4c-4.783-1.189-6.4-1.988-6.842-5.763-1.128-9.7-2.706-19.342-3.916-29.031-.459-3.67-2.311-4.523-7.919-2.866a61.632,61.632,0,0,1-27.555,1.645c-6.43-1.067-8.385-.492-8.54,3.581-.384,10.086-1.275,20.152-1.643,30.238-.107,2.939-1.149,4.119-3.748,5.28-8.146,3.638-16.063,7.786-24.187,11.474a5.418,5.418,0,0,1-4.544-.625c-8.95-6.5-17.747-13.2-26.871-20.056a121.952,121.952,0,0,0-28.015,29.667c-.638.933.22,3.643,1.217,4.817q9.335,10.984,19.121,21.577c2.544,2.739,2.8,4.8.868,8.83a129.653,129.653,0,0,0-8.023,22.984c-.793,2.989-1.88,3.926-4.479,4.284-10.956,1.514-21.886,3.208-33.424,4.925-.275,5.628-.947,11.127-.712,16.586Q88.055,579.331,88.155,580.819Z" transform="translate(-87.942 -431.826)" fill="#f39122"/>
      <path id="Path_808" data-name="Path 808" d="M189.278,590.153a53.852,53.852,0,0,1,.819-16.471c5.9-28.659,33.733-46.75,62.771-40.8,27.04,5.54,44.594,30.141,41.911,57.27h24.493a77.186,77.186,0,1,0-153.854,0Z" transform="translate(-97.573 -441.16)" fill="#0571b4"/>
    </g>
    <g id="Group_730" data-name="Group 730" transform="translate(154.933 109.943)">
      <path id="Path_809" data-name="Path 809" d="M389.45,388.9,373.3,382.138l-35.689,3.014L319.8,395.326s-11.952,55.106-15.079,96.715l94.515-.2Z" transform="translate(-189.572 -143.895)" fill="#0571b4"/>
      <path id="Path_810" data-name="Path 810" d="M391.509,391.034l-15.045,19.1-10.271-8.662,9.932,17.1Z" transform="translate(-197.24 -145.005)" fill="#005082"/>
      <path id="Path_811" data-name="Path 811" d="M334.036,394.3l17.809,16.166,10.338-8.583L351.821,416.7Z" transform="translate(-193.229 -145.413)" fill="#005082"/>
      <path id="Path_812" data-name="Path 812" d="M392.014,413.2l-5.068,82.431,22.547.087-7.7-64.794Z" transform="translate(-199.829 -147.77)" fill="#005082"/>
      <g id="Group_727" data-name="Group 727" transform="translate(39.999)">
        <path id="Path_813" data-name="Path 813" d="M401.077,132.059c-15.35-10.124-40.123-22.289-64.819-22.11v-.006l-.077.005h-.076v.007c-24.654,1.464-48.661,15.255-63.3,26.378-14.674,11.146-54.7,26.69-53.929,49.755s21.337,23.565,21.337,23.565l99.107-3.3.153-.005,99.107-3.3s20.485-1.867,19.721-24.933S416.46,142.2,401.077,132.059Z" transform="translate(-218.861 -109.943)" fill="#0571b4"/>
        <path id="Path_814" data-name="Path 814" d="M437.892,243.287s-4.85,35.511-3.943,67.444c.674,23.728-6.554,44.492-56.419,60.632a114.7,114.7,0,0,1-79.315-2.856c-43.5-18.125-44.635-50.589-44.772-69.852-.228-31.944-2.023-54.034-2.023-54.034" transform="translate(-222.923 -126.576)" fill="#ede2a2"/>
        <path id="Path_815" data-name="Path 815" d="M431.626,259.04s-22.048-4.757-27.879-20.428c0,0-68.784,41.387-107.871,32.623,0,0,7.456-20.754,36.265-32.111,0,0-51.024,23.385-70.837,17.085l-.27-37.846,166.678-2.281Z" transform="translate(-224.122 -123.182)" fill="#333132"/>
        <g id="Group_719" data-name="Group 719" transform="translate(56.699 129.969)">
          <g id="Group_717" data-name="Group 717" transform="translate(0 19.205)">
            <path id="Path_816" data-name="Path 816" d="M309.872,280.376s18.273.417,18.764,27.784-27,19.04-27,19.04-19.662-4.678-17.879-21.152S297.089,281.127,309.872,280.376Z" transform="translate(-283.64 -280.376)" fill="#fff"/>
            <path id="Path_817" data-name="Path 817" d="M309.007,300.723l16.212-2.1c-1.435-8.092-5.58-15.1-11.786-15.527-8.394-.577-17.372,11.1-18.131,22.156s2.9,20.2,13.824,21.055c9.649.758,14.5-5.836,16.083-14.873Z" transform="translate(-285.083 -280.713)" fill="#333132"/>
          </g>
          <g id="Group_718" data-name="Group 718" transform="translate(5.75)">
            <path id="Path_818" data-name="Path 818" d="M291.09,269.944a4.4,4.4,0,0,0,5.768,1.182c6.435-3.847,12.783-4.812,18.914-2.873a22.983,22.983,0,0,1,5.748,2.768,4.4,4.4,0,0,0,5.477-.5h0a4.416,4.416,0,0,0-.584-6.866,31.837,31.837,0,0,0-7.967-3.84c-6.131-1.941-15.368-2.682-26.06,3.673a4.43,4.43,0,0,0-1.3,6.456Z" transform="translate(-290.21 -258.434)" fill="#1c1c1c"/>
          </g>
        </g>
        <g id="Group_722" data-name="Group 722" transform="translate(146.347 128.309)">
          <g id="Group_720" data-name="Group 720" transform="translate(0.332 19.207)">
            <path id="Path_819" data-name="Path 819" d="M404.811,278.482s-18.265.678-18.366,28.049,27.271,18.652,27.271,18.652,19.594-4.957,17.575-21.4S417.6,279.05,404.811,278.482Z" transform="translate(-386.445 -278.482)" fill="#fff"/>
            <path id="Path_820" data-name="Path 820" d="M404.806,298.558,420.62,294c-2.656-7.835-7.848-14.18-14.089-13.661-8.441.7-15.6,13.691-14.676,24.805s5.954,19.658,16.957,18.852c9.718-.712,13.543-8.012,13.745-17.246Z" transform="translate(-387.109 -278.71)" fill="#333132"/>
          </g>
          <g id="Group_721" data-name="Group 721">
            <path id="Path_821" data-name="Path 821" d="M423.378,267.786a4.4,4.4,0,0,1-5.75,1.264c-6.489-3.755-12.851-4.629-18.954-2.6a22.97,22.97,0,0,0-5.708,2.85,4.406,4.406,0,0,1-5.484-.426h0a4.417,4.417,0,0,1,.486-6.874,31.856,31.856,0,0,1,7.912-3.953c6.1-2.03,15.328-2.9,26.11,3.3a4.43,4.43,0,0,1,1.392,6.437Z" transform="translate(-386.065 -256.538)" fill="#1c1c1c"/>
          </g>
        </g>
        <path id="Path_822" data-name="Path 822" d="M358.914,323.32l-8.061,8.835,16.292-.116Z" transform="translate(-235.325 -136.559)" fill="#c7bf80"/>
        <path id="Path_823" data-name="Path 823" d="M317.155,353.258s44.505-10.845,75.492-7.35c0,0,.243,34.055-40.623,34.347C320.381,380.48,317.155,353.258,317.155,353.258Z" transform="translate(-231.122 -139.29)" fill="#d64338"/>
        <path id="Path_824" data-name="Path 824" d="M324.312,351.863c6.094,4.165,17.15,6.422,29.551,5.434,13.974-1.114,25.612-6.026,30.1-12.029C361.7,344.666,335.936,349.417,324.312,351.863Z" transform="translate(-232.015 -139.29)" fill="#fff"/>
        <path id="Path_825" data-name="Path 825" d="M388,366.3a59.938,59.938,0,0,0-61.057,6.109c5.157,5.357,13.344,9.865,26.3,9.773C372.561,382.041,382.69,374.36,388,366.3Z" transform="translate(-232.344 -141.215)" fill="#d3a339"/>
        <path id="Path_826" data-name="Path 826" d="M437.793,235.711l16.065,49.34,17.02-29.237L470.8,244.7s29.674-16.03-21.028-26.819Z" transform="translate(-246.17 -123.407)" fill="#333132"/>
        <path id="Path_827" data-name="Path 827" d="M269.19,236.9l-15.358,49.564L236.4,257.471l-.08-11.109s-29.9-15.605,20.643-27.117Z" transform="translate(-219.943 -123.577)" fill="#333132"/>
        <g id="Group_723" data-name="Group 723" transform="translate(206.308 135.189)">
          <path id="Path_828" data-name="Path 828" d="M459.133,317.312,454.571,283.5s18.813-30.422,30.734-14.473-4.775,53.48-26.172,48.289" transform="translate(-454.571 -264.398)" fill="#ede2a2"/>
          <path id="Path_829" data-name="Path 829" d="M484.756,279.992s-8.627-5.307-14.992,5.476-6.312,18.3-.924,20.942,12.319-3.846,10.13-9.736-8.08-3.7-8.08-3.7,4.778-7.55,15-3.865c0,0-2.73-6.422-10.77-4.754A12.447,12.447,0,0,1,484.756,279.992Z" transform="translate(-455.858 -266.18)" fill="#c7bf80"/>
        </g>
        <g id="Group_724" data-name="Group 724" transform="translate(4.457 135.844)">
          <path id="Path_830" data-name="Path 830" d="M254.6,318.662,253.26,278.4s-13.831-23.768-25.524-7.65,5.539,53.406,26.859,47.911" transform="translate(-223.953 -265.146)" fill="#ede2a2"/>
          <path id="Path_831" data-name="Path 831" d="M230.379,281.819s8.55-5.429,15.069,5.261,6.572,18.2,1.224,20.927-12.374-3.669-10.269-9.589,8.025-3.814,8.025-3.814-4.885-7.481-15.057-3.651c0,0,2.638-6.46,10.7-4.908A12.449,12.449,0,0,0,230.379,281.819Z" transform="translate(-224.629 -267.054)" fill="#c7bf80"/>
        </g>
        <rect id="Rectangle_173" data-name="Rectangle 173" width="230.088" height="12.162" rx="5.982" transform="matrix(0.999, -0.033, 0.033, 0.999, 5.301, 95.003)" fill="#f39122"/>
        <path id="Path_832" data-name="Path 832" d="M441.481,204.4c-10.765-2.979-20.452,3-44.477-10.928-22.584-13.09-50.655-14.025-53.941-14.09v-.016l-.323.026c-3.274.284-31.221,3.085-52.883,17.649-23.044,15.493-33.108,10.175-43.65,13.863s-12.7,27.321,14.325,25.244c26.97-2.074,31.433-5.158,83.889-6.333v0l.162-.007.162,0v0c52.419-2.319,57.077.46,84.124.734C455.971,230.817,452.245,207.381,441.481,204.4Z" transform="translate(-221.361 -118.603)" fill="#edda35"/>
        <g id="Group_726" data-name="Group 726" transform="translate(84.808 24.092)">
          <g id="Group_725" data-name="Group 725" transform="translate(0 0.316)">
            <path id="Path_833" data-name="Path 833" d="M336.348,153.175c.123,6.437-3.619,9.644-9.989,9.765-6.437.123-10.2-2.874-10.321-9.377l-.284-14.807,5.236-.1.284,14.807c.05,2.6.766,5.156,5,5.076,3.735-.072,4.9-1.7,4.837-5.264l-.284-14.807,5.236-.1Z" transform="translate(-315.755 -137.897)" fill="#fff"/>
            <path id="Path_834" data-name="Path 834" d="M344.1,138.214l5.2-.1L359.548,153.9l.067,0-.306-15.974,4.9-.094.456,23.811-5.237.1L349.221,145.99h-.067l.3,15.941-4.9.094Z" transform="translate(-319.291 -137.83)" fill="#fff"/>
          </g>
          <path id="Path_835" data-name="Path 835" d="M379.195,137.469A12.162,12.162,0,1,0,391.4,149.4,12.166,12.166,0,0,0,379.195,137.469Zm-4.128,4.718a24.382,24.382,0,0,1,1.113-2.777.333.333,0,0,1,.242-.2,10.652,10.652,0,0,1,2.474-.361l.242,0,.061,3.178a26.859,26.859,0,0,0-4.252.542C374.992,142.423,375.028,142.3,375.067,142.187Zm-3.27-.357a10.031,10.031,0,0,1,2.6-1.812c-.012.033-.024.067-.037.1a23.553,23.553,0,0,0-.916,2.7.211.211,0,0,1-.166.173,19.106,19.106,0,0,0-3.274,1.281c-.04.02-.082.038-.128.06A10.373,10.373,0,0,1,371.8,141.83Zm-3.279,6.6a11.62,11.62,0,0,1,.334-1.72.453.453,0,0,1,.2-.27,14.1,14.1,0,0,1,2.62-1.41c.416-.172.841-.32,1.262-.479.025-.01.053-.017.106-.033a24.018,24.018,0,0,0-.455,4.3l-4.1.079C368.492,148.728,368.5,148.576,368.518,148.426Zm.352,3.958a.2.2,0,0,1-.1-.128,11.056,11.056,0,0,1-.3-1.936.211.211,0,0,1,.01-.047l4.107-.079c.036.453.064.909.11,1.363s.1.923.172,1.381.158.9.242,1.381c-.17-.053-.32-.1-.469-.147a15.483,15.483,0,0,1-3.282-1.47C369.194,152.6,369.034,152.489,368.87,152.384Zm.726,2.055a19.845,19.845,0,0,0,3.884,1.422c.2.607.379,1.205.586,1.8s.441,1.171.674,1.785A10.822,10.822,0,0,1,369.6,154.439Zm4.963.144c-.178-.76-.323-1.525-.426-2.3-.085-.635-.146-1.273-.176-1.913,0-.064,0-.129,0-.2l5.4-.1.1,5.164-.137,0c-.771-.011-1.54-.06-2.306-.143s-1.546-.2-2.31-.365A.157.157,0,0,1,374.559,154.582Zm5,5.838c-.122,0-.236.009-.351.006a10.887,10.887,0,0,1-1.609-.131c-.315-.054-.628-.126-.942-.186a.194.194,0,0,1-.149-.126,27.424,27.424,0,0,1-1.468-3.683c-.008-.026-.013-.053-.025-.1.747.129,1.483.241,2.225.3s1.49.092,2.245.137Zm-.226-11.754c-.1.032-5.211.137-5.379.111a21.52,21.52,0,0,1,.6-4.691,23.226,23.226,0,0,1,4.67-.677C379.244,143.509,379.349,148.382,379.328,148.666Zm10.1-1.943c-.025.022-.053.041-.08.061a.243.243,0,0,1-.078.334.671.671,0,0,1-.109.091.138.138,0,0,0-.071.141.313.313,0,0,1-.2.312c-.085.039-.177.06-.267.091-.014.3-.05.34-.355.4.017.2.005.208-.355.367.022.147,0,.18-.13.256-.031.018-.044.062-.072.088a.556.556,0,0,1-.122.09.4.4,0,0,1-.116.022c-.01.112-.1.13-.189.158-.031.011-.055.046-.087.062-.057.032-.116.056-.174.086-.031.016-.056.039-.087.055-.051.026-.1.049-.154.08l-.112.059c-.028.015-.054.033-.084.046s-.068.022-.1.036a.4.4,0,0,0-.059.039c.018.022.032.057.053.063a.349.349,0,0,0,.121,0c.33-.028.659-.061.989-.082a.819.819,0,0,1,.286.04c.1.031.1.1.024.164-.036.031-.076.056-.119.087.054.062.194.085.136.2-.038.072-.126.116-.194.175.1.271.1.271-.185.321,0,.323,0,.323-.3.366-.026.284-.071.328-.311.295a.39.39,0,0,0-.011.046c-.019.172-.094.23-.263.21-.025,0-.066,0-.075.018-.1.172-.211.162-.354.063-.158.186-.187.186-.418.006-.208.1-.257.1-.422-.051a.074.074,0,0,0-.06-.019.275.275,0,0,1-.351-.174c-.265.042-.277.033-.326-.242a1.243,1.243,0,0,1-.128,0c-.115-.015-.153-.093-.085-.186a.782.782,0,0,1,.158-.156c.231-.176.466-.347.7-.522a1.055,1.055,0,0,0,.128-.115c.088-.094.082-.165-.015-.263-.049.042-.093.106-.151.123-.137.043-.285.043-.422.1a.089.089,0,0,1-.067-.017.186.186,0,0,0-.16-.015.31.31,0,0,1-.183-.018.174.174,0,0,0-.149,0c-.108.034-.22.08-.319-.028-.01-.011-.043-.006-.064,0-.142.019-.281.037-.344-.142,0-.015-.044-.023-.067-.024a.964.964,0,0,1-.2-.005.338.338,0,0,1-.182-.1.205.205,0,0,0-.14-.091,2.08,2.08,0,0,1-.251-.076c-.078-.028-.125-.081-.1-.165-.169-.016-.338-.023-.5-.049-.113-.018-.226-.055-.247-.2,0-.02-.046-.039-.075-.05-.079-.027-.161-.047-.241-.074s-.115-.073-.06-.15c-.089-.038-.179-.068-.262-.113-.1-.053-.105-.095-.048-.19l-.338-.186.007-.034.1-.039-.321-.452v-.061a2.458,2.458,0,0,1,.289.153,2.432,2.432,0,0,0,1.789.406,2.978,2.978,0,0,1,.7-.013,9.943,9.943,0,0,0,1.426.019c.166-.006.237-.1.234-.269,0-.105-.009-.209-.009-.314a.512.512,0,0,1,.021-.15.261.261,0,0,1,.225-.193.207.207,0,0,1,.222.125c.055.1.092.216.143.321a.327.327,0,0,0,.095.122.312.312,0,0,0,.376-.011c.365-.229.727-.467,1.1-.673a5.338,5.338,0,0,1,.706-.27,3.25,3.25,0,0,0,1.652-1.292l.122,0,0,.2c-.058.128-.116.256-.172.383a.058.058,0,0,0,0,.046C389.626,146.518,389.537,146.624,389.424,146.723Z" transform="translate(-322.157 -137.469)" fill="#fff"/>
        </g>
      </g>
      <g id="Group_728" data-name="Group 728" transform="translate(0 201.36)">
        <path id="Path_836" data-name="Path 836" d="M442.41,447.422,307.51,392.5l-20.3,62.272,141.343,35.154a22.356,22.356,0,0,0,13.861-42.509Zm-9.911,30.4a9.617,9.617,0,1,1,12.124-6.162A9.616,9.616,0,0,1,432.5,477.819Z" transform="translate(-187.387 -346.548)" fill="#cecece"/>
        <path id="Path_837" data-name="Path 837" d="M316.289,429.813a60.8,60.8,0,0,0,1.328-33.194L307.51,392.5l-20.3,62.272,10.589,2.634A60.8,60.8,0,0,0,316.289,429.813Z" transform="translate(-187.387 -346.548)" fill="#6d6d6d" opacity="0.4"/>
        <path id="Path_838" data-name="Path 838" d="M253.036,343.024A61.1,61.1,0,0,0,187.5,361.579l60.518,19.732L233.68,425.3l-60.518-19.733a61.093,61.093,0,1,0,79.874-62.542Z" transform="translate(-173.162 -339.999)" fill="#cecece"/>
        <line id="Line_75" data-name="Line 75" x2="105.377" y2="42.015" transform="translate(130.073 61.637)" fill="none" stroke="#6d6d6d" stroke-linecap="round" stroke-linejoin="round" stroke-width="6"/>
        <line id="Line_76" data-name="Line 76" x1="95.765" y1="24.156" transform="translate(133.132 106.3)" fill="none" stroke="#efefef" stroke-linecap="round" stroke-linejoin="round" stroke-width="6"/>
      </g>
      <path id="Path_839" data-name="Path 839" d="M403.17,387.509c-4.346-.085-7.979,3.105-10.378,6.283-3.569,4.727-3.077,15.919,7.642,31.07l8.28,12.815,28.91-17.488S422.945,387.9,403.17,387.509Z" transform="translate(-200.309 -144.565)" fill="#0571b4"/>
      <path id="Path_840" data-name="Path 840" d="M414.062,389.9l-6.971,5.652a2.637,2.637,0,0,0-.18,4.073c3.1,2.928,8.866,8.395,13.835,13.15a3.623,3.623,0,0,0,4.175.49l9.354-5.171a2.675,2.675,0,0,0,.938-4.089c-3.2-4.012-10.04-11.7-17.556-14.616A3.677,3.677,0,0,0,414.062,389.9Z" transform="translate(-202.209 -144.769)" fill="#edda35"/>
      <path id="Path_841" data-name="Path 841" d="M433.729,426.373l-23.324,14.109s23.122,23.04-33.112,38.892c0,0,4.424,7.861,20.833,7.924C398.126,487.3,458.029,486.3,433.729,426.373Z" transform="translate(-198.624 -149.413)" fill="#ede2a2"/>
      <circle id="Ellipse_76" data-name="Ellipse 76" cx="5.626" cy="5.626" r="5.626" transform="translate(159.674 325.945)" fill="#edda35"/>
      <path id="Path_842" data-name="Path 842" d="M399.783,507.475l8.45,64.559-23.724-.091-28.733-51.387-20.916,51.2-23.059-.088-2.707-64.091Z" transform="translate(-190.118 -159.529)" fill="#333132"/>
      <path id="Path_843" data-name="Path 843" d="M418.98,581.221s21.378,4.771,18.624,13.2-27.484,2.239-33.575-.6-8.773-12.693-8.773-12.693Z" transform="translate(-200.865 -168.717)" fill="#1c1c1c"/>
      <path id="Path_844" data-name="Path 844" d="M308.808,580.808s-21.414,4.607-18.725,13.056,27.466,2.45,33.578-.34,8.87-12.625,8.87-12.625Z" transform="translate(-187.717 -168.676)" fill="#1c1c1c"/>
      <path id="Path_845" data-name="Path 845" d="M360.112,521.544,344.037,515.4l-.176,45.922Z" transform="translate(-194.454 -160.518)" fill="#1c1c1c"/>
      <g id="Group_729" data-name="Group 729" transform="translate(86.672 301.935)">
        <path id="Path_846" data-name="Path 846" d="M297.247,469.981a9.048,9.048,0,0,0-4.712-12.38c-6.131-2.594-15.681-5.207-18.788,1.889-6.829,15.6,10.466,17.884,18.822,14.591A8.641,8.641,0,0,0,297.247,469.981Z" transform="translate(-272.186 -454.907)" fill="#ede2a2"/>
        <path id="Path_847" data-name="Path 847" d="M281.6,457.806s-2.837,6.262-.068,17.923" transform="translate(-273.201 -455.268)" fill="none" stroke="#c7bf80" stroke-miterlimit="10" stroke-width="3"/>
        <path id="Path_848" data-name="Path 848" d="M289.647,463.412s-2.271,7.493.575,13.045" transform="translate(-274.257 -455.968)" fill="none" stroke="#c7bf80" stroke-miterlimit="10" stroke-width="3"/>
      </g>
      <path id="Path_849" data-name="Path 849" d="M248.022,387.2l10.243,2.938-16.609,56.219-66.261-22.494-2.232-12.408,60.517,19.732Z" transform="translate(-173.162 -144.527)" fill="#efefef"/>
      <path id="Path_850" data-name="Path 850" d="M415.858,464.845s8.63-16.5,16.609-15.859A196.025,196.025,0,0,1,415.858,464.845Z" transform="translate(-203.435 -152.231)" fill="#c7bf80"/>
    </g>
    <path id="Path_851" data-name="Path 851" d="M267.047,390.384l-10.254-2.9L242.62,431.528l8.034,15.138Z" transform="translate(-26.893 -34.619)" fill="#6d6d6d"/>
    <g id="Group_731" data-name="Group 731" transform="translate(49.818 279.878)" opacity="0.36">
      <path id="Path_852" data-name="Path 852" d="M140.934,345c-2.414,2.207-4.866,4.374-7.256,6.608-.743.695-1.245.8-2.408.232a38.141,38.141,0,0,0-7.463-2.765c-1.575-.392-2.108-.655-2.253-1.9-.372-3.194-.891-6.369-1.29-9.561-.151-1.209-.761-1.49-2.607-.944a20.293,20.293,0,0,1-9.075.542c-2.117-.351-2.761-.162-2.812,1.18-.126,3.321-.42,6.636-.541,9.957a1.692,1.692,0,0,1-1.234,1.739c-2.683,1.2-5.289,2.564-7.965,3.779a1.784,1.784,0,0,1-1.5-.207c-2.948-2.139-5.844-4.347-8.85-6.6a40.157,40.157,0,0,0-9.225,9.771c-.21.306.073,1.2.4,1.586q3.075,3.617,6.3,7.105c.838.9.923,1.579.286,2.908a42.718,42.718,0,0,0-2.642,7.568c-.262.985-.62,1.294-1.476,1.412-3.607.5-7.207,1.056-11.006,1.622-.09,1.853-.312,3.664-.235,5.462.109,2.513.452,5.015.672,7.525.09,1.027.551,1.438,1.636,1.467,3.321.088,6.641.259,9.954.494a1.913,1.913,0,0,1,1.316.938c1.236,2.547,2.308,5.175,3.571,7.708a1.7,1.7,0,0,1-.185,2.129c-2.19,2.842-4.308,5.74-6.526,8.713a40.724,40.724,0,0,0,10.459,9.825c2.621-2.39,5.29-4.708,7.809-7.178a2.207,2.207,0,0,1,2.916-.418c2.545,1.094,5.178,2,7.816,2.858.863.281,1.31.518,1.431,1.533.427,3.607,1.062,7.709,1.613,11.538l1.74-.127c3.6-.253,7.266-.53,10.936-.76,1.164-.073,1.61-.49,1.635-1.762.062-3.157.368-6.309.508-9.466a1.743,1.743,0,0,1,1.387-1.809,63.073,63.073,0,0,0,7.551-3.459,1.691,1.691,0,0,1,2.168.04c2.59,1.989,5.23,3.915,7.817,5.908.836.644,1.448.827,2.35-.586a32.422,32.422,0,0,1,7.091-7.713c1.154-.93,1.158-1.546.4-2.359-2.221-2.4-4.363-4.868-6.6-7.255a1.479,1.479,0,0,1-.306-1.922c1.16-2.81,2.207-5.671,3.148-8.562.3-.927.577-1.417,1.625-1.558,3.554-.478,7.092-1.079,10.637-1.633l.337-1.575c.014-1.6.116-3.2.02-4.79-.138-2.292-.444-4.573-.632-6.864-.074-.889-.491-1.133-1.347-1.161-3.689-.122-7.376-.318-10.707-.47-1.666-3.289-3.238-6.319-4.715-9.4a1.923,1.923,0,0,1,.105-1.636c1.9-2.662,3.849-5.289,5.877-7.853.942-1.191.747-1.949-1.835-3.162a14.144,14.144,0,0,1-6.113-5.685C142.328,343.757,141.692,344.306,140.934,345Zm.273,47.581a27.363,27.363,0,1,1-16.523-34.993A27.395,27.395,0,0,1,141.207,392.579Z" transform="translate(-68.068 -336.405)" fill="#f39122"/>
      <path id="Path_853" data-name="Path 853" d="M94.986,377.888a25.418,25.418,0,1,0,32.5-15.349A25.447,25.447,0,0,0,94.986,377.888Zm40.91,12.557a17.482,17.482,0,0,1-34.188-7.325,17.482,17.482,0,0,1,34.188,7.325Z" transform="translate(-71.239 -339.478)" fill="#0571b4"/>
    </g>
    <g id="Group_733" data-name="Group 733" transform="translate(413.401 310.317)" opacity="0.36">
      <path id="Path_852-2" data-name="Path 852" d="M116.867,342.16c-1.617,1.478-3.259,2.929-4.859,4.426-.5.465-.834.534-1.613.155a25.546,25.546,0,0,0-5-1.852c-1.055-.263-1.412-.438-1.509-1.271-.249-2.139-.6-4.266-.864-6.4-.1-.809-.509-1-1.746-.632a13.591,13.591,0,0,1-6.077.363c-1.418-.235-1.849-.108-1.883.79-.084,2.224-.281,4.444-.362,6.668a1.133,1.133,0,0,1-.827,1.165c-1.8.8-3.542,1.717-5.334,2.531a1.2,1.2,0,0,1-1-.138c-1.974-1.433-3.914-2.912-5.927-4.423a26.893,26.893,0,0,0-6.178,6.544c-.141.205.049.8.268,1.062q2.059,2.422,4.217,4.759c.561.6.618,1.058.192,1.947a28.61,28.61,0,0,0-1.769,5.069c-.175.659-.415.866-.988.946-2.416.334-4.827.707-7.371,1.086-.06,1.241-.209,2.454-.157,3.658.073,1.683.3,3.359.45,5.039.06.688.369.963,1.1.982,2.224.059,4.447.173,6.667.331a1.281,1.281,0,0,1,.881.628c.828,1.706,1.546,3.465,2.392,5.162a1.138,1.138,0,0,1-.124,1.426c-1.467,1.9-2.885,3.844-4.371,5.835a27.273,27.273,0,0,0,7,6.58c1.756-1.6,3.543-3.153,5.23-4.807a1.478,1.478,0,0,1,1.953-.28c1.7.733,3.468,1.34,5.235,1.914.578.188.878.347.958,1.027.286,2.416.711,5.163,1.08,7.727l1.165-.085c2.411-.169,4.866-.355,7.324-.509.78-.049,1.078-.328,1.095-1.18.042-2.114.247-4.225.34-6.34a1.167,1.167,0,0,1,.929-1.212,42.244,42.244,0,0,0,5.057-2.317,1.132,1.132,0,0,1,1.452.027c1.734,1.332,3.5,2.622,5.235,3.957.56.431.97.554,1.574-.393a21.713,21.713,0,0,1,4.749-5.165c.773-.623.775-1.035.271-1.58-1.488-1.606-2.922-3.26-4.417-4.859a.99.99,0,0,1-.205-1.287c.777-1.882,1.478-3.8,2.108-5.734.2-.621.386-.949,1.089-1.043,2.38-.32,4.75-.723,7.124-1.094l.226-1.055c.009-1.07.078-2.142.013-3.208-.093-1.535-.3-3.063-.423-4.6-.049-.6-.329-.759-.9-.777-2.471-.082-4.94-.213-7.171-.315-1.115-2.2-2.168-4.232-3.158-6.293a1.288,1.288,0,0,1,.07-1.1c1.271-1.783,2.578-3.542,3.936-5.259.631-.8.5-1.305-1.229-2.118a9.472,9.472,0,0,1-4.094-3.807C117.8,341.329,117.375,341.7,116.867,342.16Zm.183,31.866a18.326,18.326,0,1,1-11.066-23.435A18.346,18.346,0,0,1,117.05,374.026Z" transform="translate(-68.068 -336.405)" fill="#f39122"/>
      <path id="Path_853-2" data-name="Path 853" d="M94.493,372.325a17.023,17.023,0,1,0,21.769-10.279A17.042,17.042,0,0,0,94.493,372.325Zm27.4,8.409A11.708,11.708,0,0,1,99,375.829a11.708,11.708,0,0,1,22.9,4.906Z" transform="translate(-78.59 -346.602)" fill="#0571b4"/>
    </g>
  </g>
</svg>
